<mxfile host="app.diagrams.net" agent="Mozilla/5.0 (Windows NT 10.0; Win64; x64) AppleWebKit/537.36 (KHTML, like Gecko) Chrome/128.0.0.0 Safari/537.36" version="24.7.8">
  <diagram name="Page-1" id="ftTIlkondoRch5_XnVgU">
    <mxGraphModel dx="1687" dy="868" grid="1" gridSize="10" guides="1" tooltips="1" connect="1" arrows="1" fold="1" page="1" pageScale="1" pageWidth="850" pageHeight="1100" math="0" shadow="0">
      <root>
        <mxCell id="0" />
        <mxCell id="1" parent="0" />
        <mxCell id="pWmndxZ335iQ5iDr9n0N-44" style="edgeStyle=orthogonalEdgeStyle;rounded=0;orthogonalLoop=1;jettySize=auto;html=1;" edge="1" parent="1" source="pWmndxZ335iQ5iDr9n0N-37" target="pWmndxZ335iQ5iDr9n0N-43">
          <mxGeometry relative="1" as="geometry" />
        </mxCell>
        <mxCell id="pWmndxZ335iQ5iDr9n0N-37" value="" style="rounded=0;whiteSpace=wrap;html=1;fillColor=#f5f5f5;fontColor=#333333;strokeColor=#666666;shadow=1;" vertex="1" parent="1">
          <mxGeometry x="1009" y="238" width="181" height="262" as="geometry" />
        </mxCell>
        <mxCell id="pWmndxZ335iQ5iDr9n0N-97" style="edgeStyle=orthogonalEdgeStyle;rounded=0;orthogonalLoop=1;jettySize=auto;html=1;" edge="1" parent="1" source="pWmndxZ335iQ5iDr9n0N-1" target="pWmndxZ335iQ5iDr9n0N-96">
          <mxGeometry relative="1" as="geometry" />
        </mxCell>
        <mxCell id="pWmndxZ335iQ5iDr9n0N-98" value="POST /v1/models" style="edgeLabel;html=1;align=center;verticalAlign=middle;resizable=0;points=[];" vertex="1" connectable="0" parent="pWmndxZ335iQ5iDr9n0N-97">
          <mxGeometry x="-0.1427" y="-1" relative="1" as="geometry">
            <mxPoint x="134" y="-1" as="offset" />
          </mxGeometry>
        </mxCell>
        <mxCell id="pWmndxZ335iQ5iDr9n0N-143" style="edgeStyle=orthogonalEdgeStyle;rounded=0;orthogonalLoop=1;jettySize=auto;html=1;jumpStyle=none;" edge="1" parent="1" source="pWmndxZ335iQ5iDr9n0N-1" target="pWmndxZ335iQ5iDr9n0N-138">
          <mxGeometry relative="1" as="geometry" />
        </mxCell>
        <mxCell id="pWmndxZ335iQ5iDr9n0N-1" value="&lt;b&gt;API Gateway&lt;/b&gt;" style="sketch=0;outlineConnect=0;fontColor=#232F3E;gradientColor=none;fillColor=#E7157B;strokeColor=#ffffff;dashed=0;verticalLabelPosition=bottom;verticalAlign=top;align=center;html=1;fontSize=12;fontStyle=0;aspect=fixed;pointerEvents=1;shape=mxgraph.aws4.resourceIcon;points=[[0,0,0],[0.25,0,0],[0.5,0,0],[0.75,0,0],[1,0,0],[0,1,0],[0.25,1,0],[0.5,1,0],[0.75,1,0],[1,1,0],[0,0.25,0],[0,0.5,0],[0,0.75,0],[1,0.25,0],[1,0.5,0],[1,0.75,0]];resIcon=mxgraph.aws4.api_gateway;shadow=1;labelBackgroundColor=default;" vertex="1" parent="1">
          <mxGeometry x="30" y="383" width="78" height="78" as="geometry" />
        </mxCell>
        <mxCell id="pWmndxZ335iQ5iDr9n0N-30" style="edgeStyle=orthogonalEdgeStyle;rounded=0;orthogonalLoop=1;jettySize=auto;html=1;" edge="1" parent="1" source="pWmndxZ335iQ5iDr9n0N-4" target="pWmndxZ335iQ5iDr9n0N-6">
          <mxGeometry relative="1" as="geometry" />
        </mxCell>
        <mxCell id="pWmndxZ335iQ5iDr9n0N-4" value="&lt;b&gt;SQS&lt;/b&gt;" style="sketch=0;points=[[0,0,0],[0.25,0,0],[0.5,0,0],[0.75,0,0],[1,0,0],[0,1,0],[0.25,1,0],[0.5,1,0],[0.75,1,0],[1,1,0],[0,0.25,0],[0,0.5,0],[0,0.75,0],[1,0.25,0],[1,0.5,0],[1,0.75,0]];outlineConnect=0;fontColor=#232F3E;fillColor=#E7157B;strokeColor=#ffffff;dashed=0;verticalLabelPosition=bottom;verticalAlign=top;align=center;html=1;fontSize=12;fontStyle=0;aspect=fixed;shape=mxgraph.aws4.resourceIcon;resIcon=mxgraph.aws4.sqs;shadow=1;" vertex="1" parent="1">
          <mxGeometry x="380" y="220" width="78" height="78" as="geometry" />
        </mxCell>
        <mxCell id="pWmndxZ335iQ5iDr9n0N-33" style="edgeStyle=orthogonalEdgeStyle;rounded=0;orthogonalLoop=1;jettySize=auto;html=1;" edge="1" parent="1" source="pWmndxZ335iQ5iDr9n0N-6" target="pWmndxZ335iQ5iDr9n0N-31">
          <mxGeometry relative="1" as="geometry">
            <Array as="points">
              <mxPoint x="760" y="259" />
              <mxPoint x="760" y="160" />
            </Array>
          </mxGeometry>
        </mxCell>
        <mxCell id="pWmndxZ335iQ5iDr9n0N-35" value="Upload input&lt;div&gt;to S3&lt;/div&gt;" style="edgeLabel;html=1;align=center;verticalAlign=middle;resizable=0;points=[];" vertex="1" connectable="0" parent="pWmndxZ335iQ5iDr9n0N-33">
          <mxGeometry x="0.4823" y="1" relative="1" as="geometry">
            <mxPoint y="-19" as="offset" />
          </mxGeometry>
        </mxCell>
        <mxCell id="pWmndxZ335iQ5iDr9n0N-52" style="edgeStyle=orthogonalEdgeStyle;rounded=0;orthogonalLoop=1;jettySize=auto;html=1;" edge="1" parent="1" source="pWmndxZ335iQ5iDr9n0N-6" target="pWmndxZ335iQ5iDr9n0N-50">
          <mxGeometry relative="1" as="geometry">
            <Array as="points">
              <mxPoint x="639" y="80" />
              <mxPoint x="1299" y="80" />
            </Array>
          </mxGeometry>
        </mxCell>
        <mxCell id="pWmndxZ335iQ5iDr9n0N-53" value="Update inference status to inProgress" style="edgeLabel;html=1;align=center;verticalAlign=middle;resizable=0;points=[];labelBorderColor=none;labelBackgroundColor=#ffffff;textShadow=0;" vertex="1" connectable="0" parent="pWmndxZ335iQ5iDr9n0N-52">
          <mxGeometry x="-0.0338" y="2" relative="1" as="geometry">
            <mxPoint x="75" y="12" as="offset" />
          </mxGeometry>
        </mxCell>
        <mxCell id="pWmndxZ335iQ5iDr9n0N-6" value="&lt;b&gt;Invoke&lt;br&gt;Lambda&lt;/b&gt;" style="sketch=0;points=[[0,0,0],[0.25,0,0],[0.5,0,0],[0.75,0,0],[1,0,0],[0,1,0],[0.25,1,0],[0.5,1,0],[0.75,1,0],[1,1,0],[0,0.25,0],[0,0.5,0],[0,0.75,0],[1,0.25,0],[1,0.5,0],[1,0.75,0]];outlineConnect=0;fontColor=#232F3E;fillColor=#ED7100;strokeColor=#ffffff;dashed=0;verticalLabelPosition=bottom;verticalAlign=top;align=center;html=1;fontSize=12;fontStyle=0;aspect=fixed;shape=mxgraph.aws4.resourceIcon;resIcon=mxgraph.aws4.lambda;shadow=1;" vertex="1" parent="1">
          <mxGeometry x="600" y="220" width="78" height="78" as="geometry" />
        </mxCell>
        <mxCell id="pWmndxZ335iQ5iDr9n0N-40" style="edgeStyle=orthogonalEdgeStyle;rounded=0;orthogonalLoop=1;jettySize=auto;html=1;" edge="1" parent="1" source="pWmndxZ335iQ5iDr9n0N-13" target="pWmndxZ335iQ5iDr9n0N-38">
          <mxGeometry relative="1" as="geometry" />
        </mxCell>
        <mxCell id="pWmndxZ335iQ5iDr9n0N-41" style="edgeStyle=orthogonalEdgeStyle;rounded=0;orthogonalLoop=1;jettySize=auto;html=1;" edge="1" parent="1" source="pWmndxZ335iQ5iDr9n0N-13" target="pWmndxZ335iQ5iDr9n0N-39">
          <mxGeometry relative="1" as="geometry" />
        </mxCell>
        <mxCell id="pWmndxZ335iQ5iDr9n0N-13" value="&lt;b&gt;Sagemaker&lt;br&gt;Endpoint&lt;/b&gt;&lt;div&gt;&lt;b&gt;Async&lt;/b&gt;&lt;/div&gt;" style="sketch=0;points=[[0,0,0],[0.25,0,0],[0.5,0,0],[0.75,0,0],[1,0,0],[0,1,0],[0.25,1,0],[0.5,1,0],[0.75,1,0],[1,1,0],[0,0.25,0],[0,0.5,0],[0,0.75,0],[1,0.25,0],[1,0.5,0],[1,0.75,0]];outlineConnect=0;fontColor=#232F3E;fillColor=#01A88D;strokeColor=#ffffff;dashed=0;verticalLabelPosition=bottom;verticalAlign=top;align=center;html=1;fontSize=12;fontStyle=0;aspect=fixed;shape=mxgraph.aws4.resourceIcon;resIcon=mxgraph.aws4.sagemaker;shadow=1;" vertex="1" parent="1">
          <mxGeometry x="848.5" y="320" width="78" height="78" as="geometry" />
        </mxCell>
        <mxCell id="pWmndxZ335iQ5iDr9n0N-32" style="edgeStyle=orthogonalEdgeStyle;rounded=0;orthogonalLoop=1;jettySize=auto;html=1;startArrow=classic;startFill=1;dashed=1;fillColor=#d5e8d4;strokeColor=#82b366;shadow=1;" edge="1" parent="1" source="pWmndxZ335iQ5iDr9n0N-31" target="pWmndxZ335iQ5iDr9n0N-13">
          <mxGeometry relative="1" as="geometry" />
        </mxCell>
        <mxCell id="pWmndxZ335iQ5iDr9n0N-31" value="" style="sketch=0;outlineConnect=0;fontColor=#232F3E;gradientColor=none;fillColor=#7AA116;strokeColor=none;dashed=0;verticalLabelPosition=bottom;verticalAlign=top;align=center;html=1;fontSize=12;fontStyle=0;aspect=fixed;pointerEvents=1;shape=mxgraph.aws4.bucket;shadow=1;" vertex="1" parent="1">
          <mxGeometry x="850" y="120" width="75" height="78" as="geometry" />
        </mxCell>
        <mxCell id="pWmndxZ335iQ5iDr9n0N-34" style="edgeStyle=orthogonalEdgeStyle;rounded=0;orthogonalLoop=1;jettySize=auto;html=1;entryX=0;entryY=0.5;entryDx=0;entryDy=0;entryPerimeter=0;" edge="1" parent="1" source="pWmndxZ335iQ5iDr9n0N-6" target="pWmndxZ335iQ5iDr9n0N-13">
          <mxGeometry relative="1" as="geometry">
            <Array as="points">
              <mxPoint x="760" y="259" />
              <mxPoint x="760" y="359" />
            </Array>
          </mxGeometry>
        </mxCell>
        <mxCell id="pWmndxZ335iQ5iDr9n0N-36" value="Inference" style="edgeLabel;html=1;align=center;verticalAlign=middle;resizable=0;points=[];" vertex="1" connectable="0" parent="pWmndxZ335iQ5iDr9n0N-34">
          <mxGeometry x="0.4537" relative="1" as="geometry">
            <mxPoint y="11" as="offset" />
          </mxGeometry>
        </mxCell>
        <mxCell id="pWmndxZ335iQ5iDr9n0N-38" value="&lt;b&gt;Success Topic&lt;/b&gt;" style="sketch=0;outlineConnect=0;fontColor=#232F3E;gradientColor=none;fillColor=#E7157B;strokeColor=none;dashed=0;verticalLabelPosition=bottom;verticalAlign=top;align=center;html=1;fontSize=12;fontStyle=0;aspect=fixed;pointerEvents=1;shape=mxgraph.aws4.topic;" vertex="1" parent="1">
          <mxGeometry x="1030" y="253" width="78" height="67" as="geometry" />
        </mxCell>
        <mxCell id="pWmndxZ335iQ5iDr9n0N-39" value="&lt;b&gt;Failure Topic&lt;/b&gt;" style="sketch=0;outlineConnect=0;fontColor=#232F3E;gradientColor=none;fillColor=#E7157B;strokeColor=none;dashed=0;verticalLabelPosition=bottom;verticalAlign=top;align=center;html=1;fontSize=12;fontStyle=0;aspect=fixed;pointerEvents=1;shape=mxgraph.aws4.topic;" vertex="1" parent="1">
          <mxGeometry x="1030" y="398" width="78" height="67" as="geometry" />
        </mxCell>
        <mxCell id="pWmndxZ335iQ5iDr9n0N-42" value="SNS" style="sketch=0;outlineConnect=0;fontColor=#232F3E;fillColor=#E7157B;strokeColor=#ffffff;dashed=0;verticalLabelPosition=middle;verticalAlign=middle;align=right;html=1;fontSize=12;fontStyle=0;aspect=fixed;shape=mxgraph.aws4.resourceIcon;resIcon=mxgraph.aws4.sns;points=[[0,0,0],[0.25,0,0],[0.5,0,0],[0.75,0,0],[1,0,0],[0,1,0],[0.25,1,0],[0.5,1,0],[0.75,1,0],[1,1,0],[0,0.25,0],[0,0.5,0],[0,0.75,0],[1,0.25,0],[1,0.5,0],[1,0.75,0]];labelPosition=left;" vertex="1" parent="1">
          <mxGeometry x="1160" y="238" width="30" height="30" as="geometry" />
        </mxCell>
        <mxCell id="pWmndxZ335iQ5iDr9n0N-60" style="edgeStyle=orthogonalEdgeStyle;rounded=0;orthogonalLoop=1;jettySize=auto;html=1;" edge="1" parent="1" source="pWmndxZ335iQ5iDr9n0N-43" target="pWmndxZ335iQ5iDr9n0N-50">
          <mxGeometry relative="1" as="geometry" />
        </mxCell>
        <mxCell id="pWmndxZ335iQ5iDr9n0N-61" value="Update inference status&#xa;to Success&#xa;or Failure" style="edgeLabel;align=center;verticalAlign=middle;resizable=0;points=[];" vertex="1" connectable="0" parent="pWmndxZ335iQ5iDr9n0N-60">
          <mxGeometry x="0.2078" y="-1" relative="1" as="geometry">
            <mxPoint x="-1" y="3" as="offset" />
          </mxGeometry>
        </mxCell>
        <mxCell id="pWmndxZ335iQ5iDr9n0N-43" value="&lt;b&gt;Notification&lt;br&gt;Lambda&lt;/b&gt;" style="sketch=0;points=[[0,0,0],[0.25,0,0],[0.5,0,0],[0.75,0,0],[1,0,0],[0,1,0],[0.25,1,0],[0.5,1,0],[0.75,1,0],[1,1,0],[0,0.25,0],[0,0.5,0],[0,0.75,0],[1,0.25,0],[1,0.5,0],[1,0.75,0]];outlineConnect=0;fontColor=#232F3E;fillColor=#ED7100;strokeColor=#ffffff;dashed=0;verticalLabelPosition=bottom;verticalAlign=top;align=center;html=1;fontSize=12;fontStyle=0;aspect=fixed;shape=mxgraph.aws4.resourceIcon;resIcon=mxgraph.aws4.lambda;shadow=1;" vertex="1" parent="1">
          <mxGeometry x="1260" y="330" width="78" height="78" as="geometry" />
        </mxCell>
        <mxCell id="pWmndxZ335iQ5iDr9n0N-50" value="&lt;b&gt;State/Metadata&lt;br&gt;Tracker&lt;/b&gt;" style="sketch=0;outlineConnect=0;fontColor=#232F3E;gradientColor=none;fillColor=#7AA116;strokeColor=none;dashed=0;verticalLabelPosition=middle;verticalAlign=middle;align=left;html=1;fontSize=12;fontStyle=0;aspect=fixed;pointerEvents=1;shape=mxgraph.aws4.bucket;labelPosition=right;shadow=1;" vertex="1" parent="1">
          <mxGeometry x="1261.5" y="120" width="75" height="78" as="geometry" />
        </mxCell>
        <mxCell id="pWmndxZ335iQ5iDr9n0N-54" value="1" style="ellipse;whiteSpace=wrap;html=1;aspect=fixed;textShadow=0;shadow=1;" vertex="1" parent="1">
          <mxGeometry x="730" y="160" width="25" height="25" as="geometry" />
        </mxCell>
        <mxCell id="pWmndxZ335iQ5iDr9n0N-55" value="2" style="ellipse;whiteSpace=wrap;html=1;aspect=fixed;textShadow=0;shadow=1;" vertex="1" parent="1">
          <mxGeometry x="730" y="340" width="25" height="25" as="geometry" />
        </mxCell>
        <mxCell id="pWmndxZ335iQ5iDr9n0N-56" value="3" style="ellipse;whiteSpace=wrap;html=1;aspect=fixed;textShadow=0;shadow=1;" vertex="1" parent="1">
          <mxGeometry x="650" y="90" width="25" height="25" as="geometry" />
        </mxCell>
        <mxCell id="pWmndxZ335iQ5iDr9n0N-57" value="4" style="ellipse;whiteSpace=wrap;html=1;aspect=fixed;textShadow=0;shadow=1;" vertex="1" parent="1">
          <mxGeometry x="910" y="280" width="25" height="25" as="geometry" />
        </mxCell>
        <mxCell id="pWmndxZ335iQ5iDr9n0N-58" value="5" style="ellipse;whiteSpace=wrap;html=1;aspect=fixed;textShadow=0;shadow=1;" vertex="1" parent="1">
          <mxGeometry x="1210" y="383" width="25" height="25" as="geometry" />
        </mxCell>
        <mxCell id="pWmndxZ335iQ5iDr9n0N-59" value="6" style="ellipse;whiteSpace=wrap;html=1;aspect=fixed;textShadow=0;shadow=1;" vertex="1" parent="1">
          <mxGeometry x="1370" y="244.5" width="25" height="25" as="geometry" />
        </mxCell>
        <mxCell id="pWmndxZ335iQ5iDr9n0N-70" style="edgeStyle=orthogonalEdgeStyle;rounded=0;orthogonalLoop=1;jettySize=auto;html=1;" edge="1" parent="1" source="pWmndxZ335iQ5iDr9n0N-68" target="pWmndxZ335iQ5iDr9n0N-50">
          <mxGeometry relative="1" as="geometry">
            <Array as="points">
              <mxPoint x="1460" y="589" />
              <mxPoint x="1460" y="190" />
            </Array>
          </mxGeometry>
        </mxCell>
        <mxCell id="pWmndxZ335iQ5iDr9n0N-89" value="Get inference status and result" style="edgeLabel;html=1;align=center;verticalAlign=middle;resizable=0;points=[];" vertex="1" connectable="0" parent="pWmndxZ335iQ5iDr9n0N-70">
          <mxGeometry x="-0.8226" y="-1" relative="1" as="geometry">
            <mxPoint x="29" y="-10" as="offset" />
          </mxGeometry>
        </mxCell>
        <mxCell id="pWmndxZ335iQ5iDr9n0N-68" value="" style="sketch=0;points=[[0,0,0],[0.25,0,0],[0.5,0,0],[0.75,0,0],[1,0,0],[0,1,0],[0.25,1,0],[0.5,1,0],[0.75,1,0],[1,1,0],[0,0.25,0],[0,0.5,0],[0,0.75,0],[1,0.25,0],[1,0.5,0],[1,0.75,0]];outlineConnect=0;fontColor=#232F3E;fillColor=#ED7100;strokeColor=#ffffff;dashed=0;verticalLabelPosition=bottom;verticalAlign=top;align=center;html=1;fontSize=12;fontStyle=0;aspect=fixed;shape=mxgraph.aws4.resourceIcon;resIcon=mxgraph.aws4.lambda;shadow=1;" vertex="1" parent="1">
          <mxGeometry x="380" y="550" width="78" height="78" as="geometry" />
        </mxCell>
        <mxCell id="pWmndxZ335iQ5iDr9n0N-73" style="edgeStyle=orthogonalEdgeStyle;rounded=0;orthogonalLoop=1;jettySize=auto;html=1;exitX=1;exitY=0.75;exitDx=0;exitDy=0;exitPerimeter=0;entryX=0;entryY=0.5;entryDx=0;entryDy=0;entryPerimeter=0;" edge="1" parent="1" source="pWmndxZ335iQ5iDr9n0N-1" target="pWmndxZ335iQ5iDr9n0N-68">
          <mxGeometry relative="1" as="geometry">
            <Array as="points">
              <mxPoint x="290" y="442" />
              <mxPoint x="290" y="589" />
            </Array>
          </mxGeometry>
        </mxCell>
        <mxCell id="pWmndxZ335iQ5iDr9n0N-80" value="GET&amp;nbsp; /v1/async/models/{request_id}/status" style="edgeLabel;html=1;align=center;verticalAlign=middle;resizable=0;points=[];" vertex="1" connectable="0" parent="pWmndxZ335iQ5iDr9n0N-73">
          <mxGeometry x="-0.8201" relative="1" as="geometry">
            <mxPoint x="84" y="-3" as="offset" />
          </mxGeometry>
        </mxCell>
        <mxCell id="pWmndxZ335iQ5iDr9n0N-74" style="edgeStyle=orthogonalEdgeStyle;rounded=0;orthogonalLoop=1;jettySize=auto;html=1;exitX=0;exitY=0.75;exitDx=0;exitDy=0;exitPerimeter=0;dashed=1;" edge="1" parent="1" source="pWmndxZ335iQ5iDr9n0N-68" target="pWmndxZ335iQ5iDr9n0N-1">
          <mxGeometry relative="1" as="geometry">
            <Array as="points">
              <mxPoint x="280" y="609" />
              <mxPoint x="280" y="450" />
            </Array>
          </mxGeometry>
        </mxCell>
        <mxCell id="pWmndxZ335iQ5iDr9n0N-84" value="Return result inference" style="edgeLabel;html=1;align=center;verticalAlign=middle;resizable=0;points=[];" vertex="1" connectable="0" parent="pWmndxZ335iQ5iDr9n0N-74">
          <mxGeometry x="-0.306" y="2" relative="1" as="geometry">
            <mxPoint x="12" y="61" as="offset" />
          </mxGeometry>
        </mxCell>
        <mxCell id="pWmndxZ335iQ5iDr9n0N-77" style="edgeStyle=orthogonalEdgeStyle;rounded=0;orthogonalLoop=1;jettySize=auto;html=1;exitX=1;exitY=0.25;exitDx=0;exitDy=0;exitPerimeter=0;entryX=0;entryY=0.5;entryDx=0;entryDy=0;entryPerimeter=0;" edge="1" parent="1" source="pWmndxZ335iQ5iDr9n0N-1" target="pWmndxZ335iQ5iDr9n0N-4">
          <mxGeometry relative="1" as="geometry">
            <Array as="points">
              <mxPoint x="290" y="403" />
              <mxPoint x="290" y="259" />
            </Array>
          </mxGeometry>
        </mxCell>
        <mxCell id="pWmndxZ335iQ5iDr9n0N-79" value="POST /v1/async/models" style="edgeLabel;html=1;align=center;verticalAlign=middle;resizable=0;points=[];" vertex="1" connectable="0" parent="pWmndxZ335iQ5iDr9n0N-77">
          <mxGeometry x="-0.7923" relative="1" as="geometry">
            <mxPoint x="39" y="5" as="offset" />
          </mxGeometry>
        </mxCell>
        <mxCell id="pWmndxZ335iQ5iDr9n0N-78" style="edgeStyle=orthogonalEdgeStyle;rounded=0;orthogonalLoop=1;jettySize=auto;html=1;exitX=0;exitY=0.25;exitDx=0;exitDy=0;exitPerimeter=0;dashed=1;" edge="1" parent="1" source="pWmndxZ335iQ5iDr9n0N-4" target="pWmndxZ335iQ5iDr9n0N-1">
          <mxGeometry relative="1" as="geometry">
            <Array as="points">
              <mxPoint x="280" y="240" />
              <mxPoint x="280" y="390" />
            </Array>
          </mxGeometry>
        </mxCell>
        <mxCell id="pWmndxZ335iQ5iDr9n0N-83" value="Return MessageId" style="edgeLabel;html=1;align=center;verticalAlign=middle;resizable=0;points=[];" vertex="1" connectable="0" parent="pWmndxZ335iQ5iDr9n0N-78">
          <mxGeometry x="0.7773" relative="1" as="geometry">
            <mxPoint x="145" y="-160" as="offset" />
          </mxGeometry>
        </mxCell>
        <mxCell id="pWmndxZ335iQ5iDr9n0N-96" value="&lt;b&gt;Sagemaker&lt;br&gt;Endpoint&lt;/b&gt;&lt;div&gt;&lt;b&gt;Sync&lt;/b&gt;&lt;/div&gt;" style="sketch=0;points=[[0,0,0],[0.25,0,0],[0.5,0,0],[0.75,0,0],[1,0,0],[0,1,0],[0.25,1,0],[0.5,1,0],[0.75,1,0],[1,1,0],[0,0.25,0],[0,0.5,0],[0,0.75,0],[1,0.25,0],[1,0.5,0],[1,0.75,0]];outlineConnect=0;fontColor=#232F3E;fillColor=#01A88D;strokeColor=#ffffff;dashed=0;verticalLabelPosition=bottom;verticalAlign=top;align=center;html=1;fontSize=12;fontStyle=0;aspect=fixed;shape=mxgraph.aws4.resourceIcon;resIcon=mxgraph.aws4.sagemaker;shadow=1;" vertex="1" parent="1">
          <mxGeometry x="500" y="383" width="78" height="78" as="geometry" />
        </mxCell>
        <mxCell id="pWmndxZ335iQ5iDr9n0N-101" value="&lt;b&gt;CloudWatch&lt;/b&gt;" style="sketch=0;points=[[0,0,0],[0.25,0,0],[0.5,0,0],[0.75,0,0],[1,0,0],[0,1,0],[0.25,1,0],[0.5,1,0],[0.75,1,0],[1,1,0],[0,0.25,0],[0,0.5,0],[0,0.75,0],[1,0.25,0],[1,0.5,0],[1,0.75,0]];points=[[0,0,0],[0.25,0,0],[0.5,0,0],[0.75,0,0],[1,0,0],[0,1,0],[0.25,1,0],[0.5,1,0],[0.75,1,0],[1,1,0],[0,0.25,0],[0,0.5,0],[0,0.75,0],[1,0.25,0],[1,0.5,0],[1,0.75,0]];outlineConnect=0;fontColor=#232F3E;fillColor=#E7157B;strokeColor=#ffffff;dashed=0;verticalLabelPosition=bottom;verticalAlign=top;align=center;html=1;fontSize=12;fontStyle=0;aspect=fixed;shape=mxgraph.aws4.resourceIcon;resIcon=mxgraph.aws4.cloudwatch_2;" vertex="1" parent="1">
          <mxGeometry x="1500" y="16.500000000000004" width="78" height="78" as="geometry" />
        </mxCell>
        <mxCell id="pWmndxZ335iQ5iDr9n0N-132" value="&lt;font style=&quot;font-size: 12px;&quot;&gt;S3 ou DB?&lt;/font&gt;&lt;div style=&quot;font-size: 12px;&quot;&gt;&lt;br style=&quot;font-size: 12px;&quot;&gt;&lt;/div&gt;" style="strokeWidth=1;shadow=0;dashed=0;align=left;html=1;shape=mxgraph.mockup.text.stickyNote2;fontColor=#666666;mainText=;fontSize=12;whiteSpace=wrap;fillColor=#ffffcc;strokeColor=#F62E00;" vertex="1" parent="1">
          <mxGeometry x="1085" y="115" width="75" height="75" as="geometry" />
        </mxCell>
        <mxCell id="pWmndxZ335iQ5iDr9n0N-133" value="Gerar métricas com dados dos logs" style="strokeWidth=1;shadow=0;dashed=0;align=left;html=1;shape=mxgraph.mockup.text.stickyNote2;fontColor=#666666;mainText=;fontSize=12;whiteSpace=wrap;fillColor=#ffffcc;strokeColor=#F62E00;" vertex="1" parent="1">
          <mxGeometry x="650" y="435" width="150" height="65" as="geometry" />
        </mxCell>
        <mxCell id="pWmndxZ335iQ5iDr9n0N-134" value="Como deixar a lambda hot?" style="strokeWidth=1;shadow=0;dashed=0;align=left;html=1;shape=mxgraph.mockup.text.stickyNote2;fontColor=#666666;mainText=;fontSize=12;whiteSpace=wrap;fillColor=#ffffcc;strokeColor=#F62E00;" vertex="1" parent="1">
          <mxGeometry x="1370" y="351" width="150" height="65" as="geometry" />
        </mxCell>
        <mxCell id="pWmndxZ335iQ5iDr9n0N-135" value="Como deixar a lambda hot?&lt;div&gt;Requisições simultaneas&lt;br&gt;&lt;/div&gt;" style="strokeWidth=1;shadow=0;dashed=0;align=left;html=1;shape=mxgraph.mockup.text.stickyNote2;fontColor=#666666;mainText=;fontSize=12;whiteSpace=wrap;fillColor=#ffffcc;strokeColor=#F62E00;" vertex="1" parent="1">
          <mxGeometry x="360" y="650" width="150" height="65" as="geometry" />
        </mxCell>
        <mxCell id="pWmndxZ335iQ5iDr9n0N-136" value="&lt;span style=&quot;color: rgb(0, 0, 0); font-size: 12px;&quot;&gt;- req por dia/mes/ano&lt;/span&gt;&lt;div style=&quot;color: rgb(0, 0, 0); font-size: 12px;&quot;&gt;- erros no invoke&lt;/div&gt;" style="strokeWidth=1;shadow=0;dashed=0;align=left;html=1;shape=mxgraph.mockup.text.stickyNote2;fontColor=#666666;mainText=;fontSize=13;whiteSpace=wrap;fillColor=#ffffcc;strokeColor=#F62E00;" vertex="1" parent="1">
          <mxGeometry x="290" y="126.5" width="150" height="65" as="geometry" />
        </mxCell>
        <mxCell id="pWmndxZ335iQ5iDr9n0N-137" value="&lt;span style=&quot;color: rgb(0, 0, 0); font-size: 12px;&quot;&gt;- quem está requisitando&lt;/span&gt;" style="strokeWidth=1;shadow=0;dashed=0;align=left;html=1;shape=mxgraph.mockup.text.stickyNote2;fontColor=#666666;mainText=;fontSize=13;whiteSpace=wrap;fillColor=#ffffcc;strokeColor=#F62E00;" vertex="1" parent="1">
          <mxGeometry x="480" y="133" width="150" height="65" as="geometry" />
        </mxCell>
        <mxCell id="pWmndxZ335iQ5iDr9n0N-138" value="&lt;b&gt;Authorizer&lt;br&gt;Lambda&lt;/b&gt;" style="sketch=0;outlineConnect=0;fontColor=#232F3E;gradientColor=none;fillColor=#ED7100;strokeColor=none;dashed=0;verticalLabelPosition=bottom;verticalAlign=top;align=center;html=1;fontSize=12;fontStyle=0;aspect=fixed;pointerEvents=1;shape=mxgraph.aws4.lambda_function;" vertex="1" parent="1">
          <mxGeometry x="45" y="550" width="48" height="48" as="geometry" />
        </mxCell>
        <mxCell id="pWmndxZ335iQ5iDr9n0N-144" value="Como deixar a lambda hot?" style="strokeWidth=1;shadow=0;dashed=0;align=left;html=1;shape=mxgraph.mockup.text.stickyNote2;fontColor=#666666;mainText=;fontSize=12;whiteSpace=wrap;fillColor=#ffffcc;strokeColor=#F62E00;" vertex="1" parent="1">
          <mxGeometry x="10" y="660" width="150" height="65" as="geometry" />
        </mxCell>
        <mxCell id="pWmndxZ335iQ5iDr9n0N-146" value="Gráficos Grafana;&lt;div&gt;Track do tempo de req;&lt;/div&gt;" style="strokeWidth=1;shadow=0;dashed=0;align=left;html=1;shape=mxgraph.mockup.text.stickyNote2;fontColor=#666666;mainText=;fontSize=12;whiteSpace=wrap;fillColor=#ffffcc;strokeColor=#F62E00;" vertex="1" parent="1">
          <mxGeometry x="1500" y="150" width="150" height="65" as="geometry" />
        </mxCell>
      </root>
    </mxGraphModel>
  </diagram>
</mxfile>
